<?xml version="1.0" encoding="utf-8"?>
<!-- Generator: Adobe Illustrator 24.0.2, SVG Export Plug-In . SVG Version: 6.00 Build 0)  -->
<svg version="1.1" id="Layer_1" xmlns="http://www.w3.org/2000/svg" xmlns:xlink="http://www.w3.org/1999/xlink" x="0px" y="0px"
	 viewBox="0 0 2695.9 663.9" style="enable-background:new 0 0 2695.9 663.9;" xml:space="preserve">
<style type="text/css">
	.st0{fill:#EBE843;}
	.st1{fill:#F5842B;}
	.st2{fill:#EE2A32;}
	.st3{fill:#D13C51;}
	.st4{fill:#965743;}
	.st5{fill:#20B355;}
	.st6{fill:#FFFFFF;}
</style>
<g>
	<g>
		<ellipse class="st0" cx="282.7" cy="204" rx="54.1" ry="71.3"/>
		<path class="st0" d="M310,289.2c0,0-21.1-2.3-45.6,0.1c-24.5,2.4-54.2,5.4-75.8,40.7c-21.7,35.3-1.3,54.6,25.9,59.6
			c0,0-20.5,58.3-85.7,51.8c-65.2-6.4-76.5-16.2-107.8,12.8c12.3,1.7,24.5,4.6,36.3,8.5c16.9,5.5,32.5,14.8,50.1,18.4
			c14.8,3.1,30.4,3.8,45.5,4.1c37.9,0.8,76.1-3.5,112.8-12.9c5.6-1.5,11.2-3,16.8-4.8c0,0,10.1-1.3,14.6,2.3
			c4.5,3.6,2.6,12.6-5.7,23.1c-8.2,10.6-39.8,70.2-30.8,104.1c8.9,33.9,41.9,37.2,41.9,37.2s-0.9-57.9,49.9-172.1
			c6.3-14.1,0.3-33.5-14.8-38.5c-6.5-2.2-13.6-2.5-20.4-2.5c-5.3,0-10.5,0.3-15.8,0.8c-2.9,0.3-18.9,0.3-20.3,2.5
			c1.2-2,37.8-65.5,48.7-103.1C329.6,321.3,338.8,296.7,310,289.2z M209,350.1c0,0-0.9-10.4,29.7-28.7l-13.4,43.8
			C225.2,365.1,208.3,368.7,209,350.1z M248.5,434.7l-8.1-0.4c0,0,2.4,4.6,5.7,6.1c0,0-20.5,5.4-29.7-8.1c0,0,21.6-18.8,25.8-39.9
			c0,0,9.2-0.2,13.7-4.8C255.9,387.6,247.2,402.7,248.5,434.7z M269,358.6c0,0-8.9,6.1-14-5.2l7.2-33.2c0,0,3.3-8.3,16.4-7.8
			c13.1,0.4,12.4,10.7,1.7,14.6c0,0,2.8,1.5,9-2L269,358.6z"/>
	</g>
	<g>
		<ellipse class="st1" cx="392.4" cy="204" rx="54.1" ry="71.3"/>
		<path class="st1" d="M419.7,289.2c0,0-21.1-2.3-45.6,0.1c-24.5,2.4-54.2,5.4-75.8,40.7c-21.7,35.3-1.3,54.6,25.9,59.6
			c0,0-20.5,58.3-85.7,51.8c-65.2-6.4-76.5-16.2-107.8,12.8c12.3,1.7,24.5,4.6,36.3,8.5c16.9,5.5,32.5,14.8,50.1,18.4
			c14.8,3.1,30.4,3.8,45.5,4.1c37.9,0.8,76.1-3.5,112.8-12.9c5.6-1.5,11.2-3,16.8-4.8c0,0,10.1-1.3,14.6,2.3
			c4.5,3.6,2.6,12.6-5.7,23.1c-8.2,10.6-39.8,70.2-30.8,104.1C379,631,412,634.3,412,634.3s-0.9-57.9,49.9-172.1
			c6.3-14.1,0.3-33.5-14.8-38.5c-6.5-2.2-13.6-2.5-20.4-2.5c-5.3,0-10.5,0.3-15.8,0.8c-2.9,0.3-18.9,0.3-20.3,2.5
			c1.2-2,37.8-65.5,48.7-103.1C439.3,321.3,448.6,296.7,419.7,289.2z M318.8,350.1c0,0-0.9-10.4,29.7-28.7L335,365.1
			C335,365.1,318,368.7,318.8,350.1z M358.2,434.7l-8.1-0.4c0,0,2.4,4.6,5.7,6.1c0,0-20.5,5.4-29.7-8.1c0,0,21.6-18.8,25.8-39.9
			c0,0,9.2-0.2,13.7-4.8C365.6,387.6,356.9,402.7,358.2,434.7z M378.7,358.6c0,0-8.9,6.1-14-5.2l7.2-33.2c0,0,3.3-8.3,16.4-7.8
			c13.1,0.4,12.4,10.7,1.7,14.6c0,0,2.8,1.5,9-2L378.7,358.6z"/>
	</g>
	<g>
		<ellipse class="st2" cx="502.2" cy="204" rx="54.1" ry="71.3"/>
		<path class="st2" d="M529.5,289.2c0,0-21.1-2.3-45.6,0.1c-24.5,2.4-54.2,5.4-75.8,40.7c-21.7,35.3-1.3,54.6,25.9,59.6
			c0,0-20.5,58.3-85.7,51.8c-65.2-6.4-76.5-16.2-107.8,12.8c12.3,1.7,24.5,4.6,36.3,8.5c16.9,5.5,32.5,14.8,50.1,18.4
			c14.8,3.1,30.4,3.8,45.5,4.1c37.9,0.8,76.1-3.5,112.8-12.9c5.6-1.5,11.2-3,16.8-4.8c0,0,10.1-1.3,14.6,2.3
			c4.5,3.6,2.6,12.6-5.7,23.1c-8.2,10.6-39.8,70.2-30.8,104.1c8.9,33.9,41.9,37.2,41.9,37.2s-0.9-57.9,49.9-172.1
			c6.3-14.1,0.3-33.5-14.8-38.5c-6.5-2.2-13.6-2.5-20.4-2.5c-5.3,0-10.5,0.3-15.8,0.8c-2.9,0.3-18.9,0.3-20.3,2.5
			c1.2-2,37.8-65.5,48.7-103.1C549.1,321.3,558.4,296.7,529.5,289.2z M428.5,350.1c0,0-0.9-10.4,29.7-28.7l-13.4,43.8
			C444.8,365.1,427.8,368.7,428.5,350.1z M468,434.7l-8.1-0.4c0,0,2.4,4.6,5.7,6.1c0,0-20.5,5.4-29.7-8.1c0,0,21.6-18.8,25.8-39.9
			c0,0,9.2-0.2,13.7-4.8C475.4,387.6,466.7,402.7,468,434.7z M488.5,358.6c0,0-8.9,6.1-14-5.2l7.2-33.2c0,0,3.3-8.3,16.4-7.8
			c13.1,0.4,12.4,10.7,1.7,14.6c0,0,2.8,1.5,9-2L488.5,358.6z"/>
	</g>
	<g>
		<ellipse class="st3" cx="608.5" cy="204" rx="52.2" ry="71.3"/>
		<path class="st3" d="M634,289.2c0,0-21.1-2.3-45.6,0.1c-24.5,2.4-54.2,5.4-75.8,40.7c-21.7,35.3-1.3,54.6,25.9,59.6
			c0,0-20.5,58.3-85.7,51.8c-65.2-6.4-76.5-16.2-107.8,12.8c12.3,1.7,24.5,4.6,36.3,8.5c16.9,5.5,32.5,14.8,50.1,18.4
			c14.8,3.1,30.4,3.8,45.5,4.1c37.9,0.8,76.1-3.5,112.8-12.9c5.6-1.5,11.2-3,16.8-4.8c0,0,10.1-1.3,14.6,2.3
			c4.5,3.6,2.6,12.6-5.7,23.1c-8.2,10.6-39.8,70.2-30.8,104.1c8.9,33.9,41.9,37.2,41.9,37.2s-0.9-57.9,49.9-172.1
			c6.3-14.1,0.3-33.5-14.8-38.5c-6.5-2.2-13.6-2.5-20.4-2.5c-5.3,0-10.5,0.3-15.8,0.8c-2.9,0.3-18.9,0.3-20.3,2.5
			c1.2-2,37.8-65.5,48.7-103.1C653.6,321.3,662.8,296.7,634,289.2z M533,350.1c0,0-0.9-10.4,29.7-28.7l-13.4,43.8
			C549.2,365.1,532.3,368.7,533,350.1z M572.5,434.7l-8.1-0.4c0,0,2.4,4.6,5.7,6.1c0,0-20.5,5.4-29.7-8.1c0,0,21.6-18.8,25.8-39.9
			c0,0,9.2-0.2,13.7-4.8C579.9,387.6,571.2,402.7,572.5,434.7z M593,358.6c0,0-8.9,6.1-14-5.2l7.2-33.2c0,0,3.3-8.3,16.4-7.8
			c13.1,0.4,12.4,10.7,1.7,14.6c0,0,2.8,1.5,9-2L593,358.6z"/>
	</g>
	<g>
		<ellipse class="st4" cx="714.9" cy="204" rx="54.1" ry="71.3"/>
		<path class="st4" d="M851.7,162.6c0,0-38.6,94.2-116.3,117.7c0,0-15.5,6.6-40,9c-24.5,2.4-54.2,5.4-75.8,40.7
			c-21.7,35.3-1.3,54.6,25.9,59.6c0,0-20.5,58.3-85.7,51.8c-65.2-6.4-76.5-16.2-107.8,12.8c12.3,1.7,24.5,4.6,36.3,8.5
			c16.9,5.5,32.5,14.8,50.1,18.4c14.8,3.1,30.4,3.8,45.5,4.1c37.9,0.8,76.1-3.5,112.8-12.9c5.6-1.5,11.2-3,16.8-4.8
			c0,0,10.1-1.3,14.6,2.3c4.5,3.6,2.6,12.6-5.7,23.1c-8.2,10.6-39.8,70.2-30.8,104.1c8.9,33.9,41.9,37.2,41.9,37.2
			s-0.9-57.9,49.9-172.1c6.3-14.1,0.3-33.5-14.8-38.5c-6.5-2.2-13.6-2.5-20.4-2.5c-5.3,0-10.5,0.3-15.8,0.8
			c-2.9,0.3-18.9,0.3-20.3,2.5c1.2-2,37.8-65.5,48.7-103.1c0,0-0.3-1.2,8.4-4.7c14.2-5.7,27.3-18,38.3-28.1
			c24.5-22.2,45.2-48.7,61.2-77.6c5.8-10.4,11-21.2,15.5-32.2C890.1,164.3,858.7,162.7,851.7,162.6z M640,350.1
			c0,0-0.9-10.4,29.7-28.7l-13.4,43.8C656.3,365.1,639.3,368.7,640,350.1z M679.5,434.7l-8.1-0.4c0,0,2.4,4.6,5.7,6.1
			c0,0-20.5,5.4-29.7-8.1c0,0,21.6-18.8,25.8-39.9c0,0,9.2-0.2,13.7-4.8C686.9,387.6,678.2,402.7,679.5,434.7z M700,358.6
			c0,0-8.9,6.1-14-5.2l7.2-33.2c0,0,3.3-8.3,16.4-7.8c13.1,0.4,12.4,10.7,1.7,14.6c0,0,2.8,1.5,9-2L700,358.6z"/>
	</g>
	<g>
		<path class="st5" d="M883.3,125.3c0,0,18.7-19-1.3-80.4C882,44.9,864.9,105.9,883.3,125.3z"/>
		<path class="st5" d="M900.7,98.5c0,0,36.1,7.7,39.7-65.5c-2.5,4.9-5.7,9.6-9,14.1c-3,3.9-6.2,7.7-9.9,10.9
			c-8.2,7.3-14.9,11.7-18.1,23C901.7,86.5,900.7,92.6,900.7,98.5z"/>
		<path class="st5" d="M854.6,279.9l16.5,28.7c0,0,19.4-46.5,3.7-154c0,0,26.9,8.7,49.8-29.4c0,0-8.1,6.1-16.8,5.5
			c0,0,8.4-3.9,28.1-37.8c0,0-32.9,11.9-43.2,35.8c0,0-9.4,12.9-14.8,17.4c0,0,3.6-14.2-23.2-71.7v69.1c0,0-1.1,13.1,16.7,21.2
			C871.3,164.9,875.2,281.8,854.6,279.9z"/>
	</g>
</g>
<g>
	<path class="st6" d="M2519.8,136.3h-35.4c-83.5,0-151.1,67.6-151.1,151.1v92.3c0,83.4,67.6,151.1,151.1,151.1h35.4
		c83.4,0,151.1-67.7,151.1-151.1v-92.3C2670.9,204,2603.2,136.3,2519.8,136.3z M2584.4,385.9c0,43.2-35.1,78.3-78.3,78.3h-16.5
		c-43.2,0-78.3-35.1-78.3-78.3V284.6c0-43.2,35-78.2,78.3-78.2h16.5c43.2,0,78.3,35,78.3,78.2V385.9z"/>
	<path class="st6" d="M1736,302.3V374c0,49.8,40.4,90.2,90.2,90.2H1937v66.7h-131.8c-84.2,0-152.4-68.2-152.4-152.4v-89.8
		c0-84.2,68.2-152.4,152.4-152.4H1937v75.8h-110.8C1776.4,212.1,1736,252.5,1736,302.3z"/>
	<path class="st6" d="M1507,141.3h-85.6l-139.2,389.6h89.8l28.7-89.8h136.7l31.5,89.8h84L1507,141.3z M1424.2,367l41.5-129.9
		l45.6,129.9H1424.2z"/>
	<path class="st6" d="M1080.3,270.2v28.4h205.1V367h-201.8v163.9h-75.8V257c0-63.9,51.8-115.7,115.7-115.7h161.8v70.8h-147
		C1106.3,212.1,1080.3,238.1,1080.3,270.2z"/>
	<path class="st6" d="M2289.5,383v63.4c0,46.6-37.8,84.4-84.4,84.4H1988v-73.7H2175c20.9,0,37.9-17,37.9-37.9v-17.7
		c0-20.9-17-37.9-37.9-37.9h-104.2c-34.7,0-65.3-18-82.7-45.3c-9.9-15.3-15.7-33.6-15.7-53.2v-30.5c0-54.3,44.1-98.4,98.4-98.4h208
		v75.8H2098c-24.8,0-44.9,20.1-44.9,44.9c0,12.4,5,23.7,13.1,31.8c4.2,4.2,9.2,7.5,14.7,9.8c5.2,2.2,11,3.3,17,3.3h130.5
		c21.6,6.2,39.6,20.8,50.3,40C2285.6,354.1,2289.5,368.1,2289.5,383z"/>
</g>
</svg>
